PathFileType	4	(X/Y/Z)	./resultDataOpenSim/trcMotMarkerGrf/sub06/qtm-13-03.trc
DataRate	CameraRate	NumFrames	NumMarkers	Units	OrigDataRate	OrigDataStartFrame	OrigNumFrames
250.000000	250.000000	12	24	m	250.000000	1	547
Frame#	Time	L.Toe.Tip			R.Toe.Tip			L.Ankle.Lat			R.Ankle.Lat			L.Ankle.Med			R.Ankle.Med			L.Heel			R.Heel			L.Knee.Lat			R.Knee.Lat			L.Knee.Med			R.Knee.Med			L.Thigh.Upper			R.Thigh.Upper			L.ASIS			R.ASIS			V.Sacral			L.Acromium			R.Acromium			C7			L.Elbow			R.Elbow			L.Wrist.Lat			R.Wrist.Lat
		X1	Y1	Z1	X2	Y2	Z2	X3	Y3	Z3	X4	Y4	Z4	X5	Y5	Z5	X6	Y6	Z6	X7	Y7	Z7	X8	Y8	Z8	X9	Y9	Z9	X10	Y10	Z10	X11	Y11	Z11	X12	Y12	Z12	X13	Y13	Z13	X14	Y14	Z14	X15	Y15	Z15	X16	Y16	Z16	X17	Y17	Z17	X18	Y18	Z18	X19	Y19	Z19	X20	Y20	Z20	X21	Y21	Z21	X22	Y22	Z22	X23	Y23	Z23	X24	Y24	Z24

1	0	-1.5282225	0.03237615	-0.097499323	-1.2061557	0.069650589	0.11182808	-1.6523993	0.070217967	-0.10444783	-1.3361797	0.093231891	0.10923761	-1.6408361	0.078703406	-0.019181542	-1.3027643	0.11550044	0.02817678	NaN	NaN	NaN	-1.3777796	0.068677378	0.03470165	-1.5327383	0.42285593	-0.11877566	-1.2792239	0.48200935	0.13923989	-1.5530323	0.4272121	0.0036930028	-1.2964405	0.46634977	0.013939956	-1.4900513	0.81265037	-0.18249513	-1.4650712	0.80806866	0.1671122	-1.4111415	0.85419359	-0.14243555	-1.3846426	0.86163621	0.099232129	-1.5728312	0.93967203	0.010453681	-1.4151189	1.3409458	-0.19392898	-1.4120694	1.324522	0.16533204	-1.4884721	1.3727651	-0.012234249	-1.432021	1.0183897	-0.26631858	-1.5253382	1.0269031	0.24495822	-1.2180789	0.8829962	-0.24556198	-1.3657478	0.8353692	0.23959829
2	0.004	-1.5282058	0.032335667	-0.097481508	-1.1864168	0.070901144	0.11157277	-1.6523963	0.070471518	-0.10417577	-1.3172389	0.090623608	0.10911718	-1.6400891	0.078840062	-0.01900954	-1.2844943	0.11411977	0.028097751	NaN	NaN	NaN	-1.3578778	0.065184864	0.034495693	-1.5311482	0.42262349	-0.11876361	-1.2720685	0.48132482	0.13901624	-1.5512427	0.42718085	0.0037014006	-1.2894861	0.46518659	0.013655828	-1.4848042	0.81164246	-0.18258814	-1.4588244	0.80693001	0.16714533	-1.4057697	0.85295385	-0.14263768	-1.378566	0.86053405	0.099437412	-1.5668764	0.9383674	0.010729906	-1.4093501	1.3398922	-0.19394098	-1.4070462	1.3232075	0.16551184	-1.483244	1.3717116	-0.012155476	-1.4231172	1.0169927	-0.26665821	-1.5221651	1.0261519	0.24419415	-1.207186	0.88519399	-0.24363752	-1.3657834	0.83222584	0.24066204
3	0.008	-1.5281957	0.032298084	-0.097469858	-1.1666652	0.072292109	0.11127999	-1.6523117	0.07073198	-0.10398307	-1.2982202	0.088221809	0.10905319	-1.6396269	0.078994373	-0.018847552	-1.26644	0.11285219	0.02814092	NaN	NaN	NaN	-1.3380291	0.06187714	0.034383158	-1.5295169	0.42238636	-0.11874192	-1.265037	0.48052793	0.13879389	-1.5492486	0.42713805	0.0036924042	-1.2825471	0.46391051	0.013325975	-1.4795523	0.81059796	-0.18269181	-1.4525888	0.80573954	0.16719685	-1.4002733	0.8517129	-0.14278697	-1.372633	0.8593125	0.099594386	-1.5608942	0.93705398	0.011051544	-1.4035819	1.3387962	-0.1939259	-1.4019966	1.3218528	0.16568073	-1.4778719	1.3706405	-0.012046813	-1.4140282	1.0155754	-0.26670871	-1.5189946	1.0254067	0.24345564	-1.1963511	0.8873682	-0.24172159	-1.365845	0.82912131	0.24174223
4	0.012	-1.5281964	0.032265369	-0.097466794	-1.146939	0.073911065	0.11092997	-1.6521027	0.071006879	-0.10391259	-1.2790846	0.086150273	0.10909753	-1.6395204	0.079197283	-0.01869846	-1.2486352	0.11180018	0.028342978	NaN	NaN	NaN	-1.3182314	0.058824941	0.034444859	-1.5278137	0.42214052	-0.11872261	-1.2582125	0.4795475	0.13855593	-1.5470427	0.42707481	0.0036577013	-1.275609	0.4624532	0.012944585	-1.4742707	0.80947515	-0.18279256	-1.4463506	0.80446821	0.1672661	-1.3945928	0.85047549	-0.14285917	-1.3669369	0.85792719	0.099682127	-1.5548735	0.93571284	0.011427243	-1.3978066	1.3376348	-0.1938824	-1.3969017	1.3204372	0.16584153	-1.4723466	1.3695194	-0.011972758	-1.404775	1.0141299	-0.26652339	-1.5157957	1.0246485	0.24274136	-1.1855982	0.88950414	-0.23981484	-1.365931	0.82606233	0.242843
5	0.016	-1.5282089	0.032236661	-0.097469426	-1.1273727	0.075783789	0.1105222	-1.6518212	0.071305769	-0.10392311	-1.2598714	0.084450984	0.10927979	-1.639636	0.079474117	-0.018562076	-1.2309739	0.11102998	0.028640032	NaN	NaN	NaN	-1.2984813	0.056003	0.034705477	-1.5260295	0.42187506	-0.11872196	-1.2515903	0.47837035	0.13829895	-1.5447763	0.4269894	0.0036034425	-1.2686634	0.46081005	0.01254048	-1.4689475	0.80823982	-0.18285481	-1.4400698	0.80311372	0.16734029	-1.3888082	0.84924118	-0.14288816	-1.3614337	0.85642691	0.099703091	-1.5488317	0.93429934	0.011812146	-1.392017	1.3364044	-0.19382665	-1.3917648	1.31896	0.16600644	-1.4667524	1.3683268	-0.011998892	-1.3955481	1.0126606	-0.26636994	-1.5125302	1.023848	0.24203741	-1.1749471	0.89159147	-0.23791616	-1.3660182	0.82303935	0.24395951
6	0.02	-1.5282324	0.032207244	-0.097473345	-1.1080695	0.0779234	0.11007793	-1.6516217	0.07163149	-0.10388261	-1.2406045	0.083134598	0.10961491	-1.6397873	0.079820422	-0.018445702	-1.2133475	0.11055121	0.028950653	NaN	NaN	NaN	-1.2788222	0.053412155	0.035119673	-1.5241633	0.42157001	-0.11874223	-1.2450615	0.47702364	0.13804689	-1.5425162	0.42688904	0.0035373686	-1.2617139	0.45901176	0.012132795	-1.4636036	0.80691397	-0.18284321	-1.433705	0.80167557	0.16741026	-1.3830472	0.84799126	-0.1429349	-1.3558903	0.85489592	0.099670755	-1.5428156	0.93269711	0.012068788	-1.3861999	1.3351053	-0.19377046	-1.3865941	1.3174251	0.16618334	-1.4611492	1.3670641	-0.012103986	-1.386462	1.0111716	-0.26638243	-1.5091685	1.0229658	0.2413481	-1.1644027	0.89362521	-0.23602092	-1.3660837	0.82004081	0.24509117
7	0.024	-1.5282666	0.032171199	-0.097475407	-1.0890508	0.080357425	0.10962516	-1.6515991	0.071971454	-0.10370558	-1.2213148	0.082203885	0.11010367	-1.6398447	0.080207033	-0.018363934	-1.1957754	0.11033995	0.029253382	NaN	NaN	NaN	-1.2593659	0.051133308	0.035622653	-1.5222041	0.42121005	-0.11878108	-1.2385192	0.47554594	0.1378108	-1.5401894	0.42677708	0.0034601102	-1.254771	0.45708816	0.01170165	-1.4582916	0.80557877	-0.18272051	-1.4272555	0.80014234	0.16747686	-1.3773518	0.84669709	-0.14304171	-1.3500578	0.85337209	0.099617017	-1.5368823	0.93078262	0.012042776	-1.3803509	1.3337399	-0.19371748	-1.3813938	1.3158384	0.16637263	-1.4555502	1.3657442	-0.012217369	-1.3774856	1.0096643	-0.2664917	-1.5056897	1.0219711	0.24068232	-1.1539586	0.8956066	-0.23412202	-1.3661148	0.81706151	0.24624361
8	0.028	-1.5283078	0.032126043	-0.097473076	-1.07031	0.083116337	0.10915339	-1.6516528	0.07231106	-0.10346873	-1.2021435	0.081626655	0.11070692	-1.6397511	0.080604812	-0.01832732	-1.1783672	0.1103699	0.029572029	NaN	NaN	NaN	-1.2401937	0.049230031	0.036179904	-1.5201303	0.42079327	-0.11884675	-1.2319768	0.47395169	0.13755766	-1.5377342	0.42663662	0.0033743425	-1.2478455	0.45505559	0.011211902	-1.453065	0.80429808	-0.18243117	-1.4207427	0.79850513	0.16754636	-1.3716847	0.84533606	-0.14323831	-1.3438815	0.8518211	0.099585172	-1.531012	0.92860952	0.011789276	-1.3744787	1.3323186	-0.19366771	-1.3761655	1.3142109	0.16657891	-1.4499423	1.3643817	-0.012270891	-1.3685501	1.0081413	-0.26659195	-1.5020835	1.0209004	0.240008	-1.1436071	0.89754226	-0.23221609	-1.366105	0.81410543	0.24742211
9	0.032	-1.5283441	0.032075651	-0.097470828	-1.0518803	0.086220311	0.10862257	-1.6516265	0.072649031	-0.1032981	-1.1832964	0.08134363	0.11136804	-1.6394936	0.080995685	-0.018338043	-1.1612227	0.11062196	0.029925006	NaN	NaN	NaN	-1.2213248	0.047679399	0.036789201	-1.5179311	0.42032184	-0.11895073	-1.22554	0.47222771	0.137232	-1.5351645	0.42642948	0.0032917522	-1.240941	0.45292319	0.010652543	-1.4479483	0.80307238	-0.18195048	-1.4141721	0.79676718	0.16761462	-1.3660206	0.84389769	-0.14354541	-1.3374757	0.85019599	0.09959327	-1.5250945	0.92641615	0.011591742	-1.3685907	1.3308558	-0.19361623	-1.3709059	1.3125513	0.16680953	-1.4443092	1.3629849	-0.012233896	-1.3596228	1.006607	-0.26664688	-1.4983521	1.019848	0.23926006	-1.1333496	0.89943518	-0.23030667	-1.3660497	0.8111836	0.24862447
10	0.036	-1.5283482	0.032030521	-0.097496884	-1.0338646	0.089680122	0.10805623	-1.6514796	0.072991167	-0.10323093	-1.1648759	0.081323994	0.11207019	-1.6390963	0.081367966	-0.018392021	-1.1443923	0.11108571	0.030312718	NaN	NaN	NaN	-1.2027817	0.046416142	0.037466761	-1.5156176	0.41979271	-0.11909129	-1.2192556	0.47037147	0.13680143	-1.5325312	0.42611776	0.0032251839	-1.2340543	0.45069838	0.010026772	-1.4429121	0.80184986	-0.18137173	-1.4075258	0.79493531	0.16766342	-1.3603623	0.84238307	-0.14391698	-1.3309604	0.84848952	0.099621002	-1.5190423	0.92438727	0.011670757	-1.362685	1.3293614	-0.1935548	-1.3656	1.3108561	0.16706167	-1.4386541	1.3615497	-0.012136544	-1.3506991	1.0050648	-0.26667086	-1.4944985	1.0188808	0.23839465	-1.1231939	0.90127804	-0.22839979	-1.3659491	0.80830853	0.24984257
11	0.04	-1.5282752	0.032005853	-0.097610208	-1.0163987	0.093498402	0.10756149	-1.6512598	0.073338634	-0.10323768	-1.146907	0.081550656	0.1128162	-1.6386254	0.081717896	-0.018476597	-1.1279061	0.11174778	0.030734141	NaN	NaN	NaN	-1.1846094	0.045382527	0.038235119	-1.513201	0.41920432	-0.11925589	-1.2130393	0.46840818	0.13627975	-1.5298647	0.42570233	0.0031713232	-1.2271793	0.44839365	0.0093205164	-1.4378797	0.80056395	-0.1808677	-1.4007804	0.79301959	0.16768206	-1.3546811	0.84081996	-0.14420332	-1.3243817	0.84671788	0.099637114	-1.5128566	0.92252402	0.012021294	-1.356758	1.3278367	-0.19347637	-1.3602326	1.3091181	0.16732771	-1.4329973	1.3600623	-0.012038122	-1.3417804	1.0035158	-0.26667059	-1.4905177	1.017997	0.23741187	-1.113146	0.90306086	-0.22650216	-1.3658052	0.80548997	0.25106708
12	0.044	-1.5280846	0.032014615	-0.097867704	-0.99955458	0.097663425	0.10721053	-1.6510159	0.073689777	-0.10328224	-1.1294828	0.08197328	0.113581	-1.6381555	0.082059549	-0.018569607	-1.1118279	0.11257937	0.031196633	NaN	NaN	NaN	-1.1668498	0.044545526	0.039113555	-1.5106717	0.4185642	-0.11943232	-1.2067481	0.46637479	0.13571435	-1.5271097	0.42522294	0.0031067579	-1.2203073	0.44603164	0.0085136365	-1.43279	0.79918316	-0.18054284	-1.3939397	0.79103768	0.167675	-1.3489224	0.8392556	-0.14428203	-1.3177413	0.84489336	0.099625658	-1.5065814	0.92073946	0.012530779	-1.3508079	1.326275	-0.19337428	-1.3548103	1.3073432	0.16760668	-1.4273536	1.3585142	-0.011973899	-1.332871	1.0019614	-0.26663196	-1.4863975	1.017149	0.23633921	-1.1032087	0.90478065	-0.2246229	-1.3656139	0.80273208	0.25228945
